# xmcd CD database file
#
# Track frame offsets:
#	150
#	40407
#	65622
#	98128
#	124730
#	161502
#	189338
#	228314
#
# Disc length: 3536 seconds
#
# Revision: 0
# Processed by: cddbd v1.5.2PL0 Copyright (c) Steve Scherf et al.
# Submitted via: CDex 1.70beta2
#
DISCID=640dce08
DTITLE=Mark Soskin - Man Behind the Curtain
DYEAR=2009
DGENRE=Jazz
TTITLE0=Heather on the Hill
TTITLE1=Chutes and Ladders
TTITLE2=Invitation
TTITLE3=For All We Know
TTITLE4=Man Behind the Curtain
TTITLE5=This is New
TTITLE6=For Heaven's Sake
TTITLE7=Little One
EXTD=YEAR: 2009
EXTT0=
EXTT1=
EXTT2=
EXTT3=
EXTT4=
EXTT5=
EXTT6=
EXTT7=
PLAYORDER=
